# xmcd
#
# Track frame offsets: 
#        150
#        11750
#        22717
#        34623
#        49759
#        60516
#        72294
#        84447
#        96156
#        106417
#        119189
#        134180
#        147474
#        165520
#        180280
#        190775
#        202428
#        215546
#        227024
#        240655
#        251804
#        268158
#        279395
#        291219
#        301261
#        313121
#        324789
#        333952
#
# Disc length: 4495 seconds
#
# Revision: 0
# Processed by: cddbd v1.5.2PL0 Copyright (c) Steve Scherf et al.
# Submitted via: ExactAudioCopy v1.0b1
#
DISCID=9f118d1c
DTITLE=Jackie Lee - The Mirwood Records Masters
DYEAR=2009
DGENRE=R&B
TTITLE0=Do The Temptation Walk
TTITLE1=Hully Gully
TTITLE2=Your P-E-R-S-O-N-A-L-I-T-Y (alt. vocal)
TTITLE3=Would You Believe
TTITLE4=The Duck (Part 2)
TTITLE5=Harlem Shuffle
TTITLE6=The Bounce
TTITLE7=The Shotgun And The Duck
TTITLE8=Ooh Honey Baby
TTITLE9=Don't Be Ashamed
TTITLE10=Trust Me (alt. vocal)
TTITLE11=Whether It's Right Or Wrong
TTITLE12=A Man Ain't Nothin'
TTITLE13=Oh, My Darlin' (alt. vocal)
TTITLE14=The Duck
TTITLE15=Land Of 1000 Dances
TTITLE16=Anything You Want (alt. vocal)
TTITLE17=The Neighborhood
TTITLE18=You're Everything
TTITLE19=Send For Me, I'll Be There
TTITLE20=Baby, I'm Satisfied (extended version)
TTITLE21=Do You Love Me
TTITLE22=Let Your Conscience Be Your Guide
TTITLE23=Everybody Jerk
TTITLE24=Dancing In The Street
TTITLE25=Try My Method
TTITLE26=Treat Her Right
TTITLE27=Tin Pan Alley
EXTD=
EXTT0=
EXTT1=
EXTT2=
EXTT3=
EXTT4=
EXTT5=
EXTT6=
EXTT7=
EXTT8=
EXTT9=
EXTT10=
EXTT11=
EXTT12=
EXTT13=
EXTT14=
EXTT15=
EXTT16=
EXTT17=
EXTT18=
EXTT19=
EXTT20=
EXTT21=
EXTT22=
EXTT23=
EXTT24=
EXTT25=
EXTT26=
EXTT27=
PLAYORDER=
